<svg xmlns="http://www.w3.org/2000/svg" xmlns:xlink="http://www.w3.org/1999/xlink" width="500" zoomAndPan="magnify" viewBox="0 0 375 374.999991" height="500" preserveAspectRatio="xMidYMid meet" version="1.0"><defs><g/></defs><g fill="#ff0000" fill-opacity="1"><g transform="translate(7.55157, 181.263914)"><g><path d="M 18.953125 0 L 15.015625 0 L 13.734375 -2.703125 L 5.421875 -2.703125 L 4.15625 0 L 0.21875 0 L 5.875 -12.140625 L 4.1875 -12.140625 L 4.1875 -15.734375 L 11.609375 -15.734375 Z M 12.046875 -6.296875 L 9.640625 -12.203125 L 9.484375 -12.203125 L 7.078125 -6.296875 Z M 12.046875 -6.296875 "/></g></g></g><g fill="#ff0000" fill-opacity="1"><g transform="translate(29.130216, 181.263914)"><g><path d="M 15.515625 0 L 1.796875 0 L 1.796875 -12.140625 L 0.109375 -12.140625 L 0.109375 -15.734375 L 5.390625 -15.734375 L 5.390625 -3.59375 L 15.515625 -3.59375 Z M 15.515625 0 "/></g></g></g><g fill="#ff0000" fill-opacity="1"><g transform="translate(47.269948, 181.263914)"><g><path d="M 14.734375 0 L 3.375 0 L 1.125 -2.25 L 1.125 -13.484375 L 3.375 -15.734375 L 15.296875 -15.734375 L 15.296875 -12.140625 L 4.71875 -12.140625 L 4.71875 -3.59375 L 13.375 -3.59375 L 13.375 -6.078125 L 9.5625 -6.078125 L 9.5625 -9.671875 L 16.96875 -9.671875 L 16.96875 -2.25 Z M 14.734375 0 "/></g></g></g><g fill="#ff0000" fill-opacity="1"><g transform="translate(67.769714, 181.263914)"><g><path d="M 15.296875 0 L 3.375 0 L 1.125 -2.25 L 1.125 -13.484375 L 3.375 -15.734375 L 15.296875 -15.734375 L 17.53125 -13.484375 L 17.53125 -2.25 Z M 13.9375 -3.59375 L 13.9375 -12.140625 L 4.71875 -12.140625 L 4.71875 -3.59375 Z M 13.9375 -3.59375 "/></g></g></g><g fill="#ff0000" fill-opacity="1"><g transform="translate(88.831396, 181.263914)"><g><path d="M 13.71875 -3.828125 C 14.28125 -3.179688 14.835938 -2.535156 15.390625 -1.890625 C 15.953125 -1.253906 16.519531 -0.625 17.09375 0 L 12.53125 0 C 11.957031 -0.625 11.390625 -1.253906 10.828125 -1.890625 C 10.273438 -2.535156 9.71875 -3.179688 9.15625 -3.828125 L 5.390625 -3.828125 L 5.390625 0 L 1.796875 0 L 1.796875 -11.015625 L 5.390625 -11.015625 L 5.390625 -7.421875 L 12.359375 -7.421875 L 12.359375 -12.140625 L 0.109375 -12.140625 L 0.109375 -15.734375 L 13.71875 -15.734375 L 15.96875 -13.484375 L 15.96875 -6.078125 Z M 13.71875 -3.828125 "/></g></g></g><g fill="#ff0000" fill-opacity="1"><g transform="translate(108.544484, 181.263914)"><g><path d="M 4.71875 0 L 1.125 0 L 1.125 -15.734375 L 4.71875 -15.734375 Z M 4.71875 0 "/></g></g></g><g fill="#ff0000" fill-opacity="1"><g transform="translate(116.794529, 181.263914)"><g><path d="M 9.921875 0 L 6.3125 0 L 6.3125 -12.140625 L 0.109375 -12.140625 L 0.109375 -15.734375 L 16.125 -15.734375 L 16.125 -12.140625 L 9.921875 -12.140625 Z M 9.921875 0 "/></g></g></g><g fill="#ff0000" fill-opacity="1"><g transform="translate(135.428748, 181.263914)"><g><path d="M 17.09375 0 L 13.484375 0 L 13.484375 -6.078125 L 5.390625 -6.078125 L 5.390625 0 L 1.796875 0 L 1.796875 -12.140625 L 0.109375 -12.140625 L 0.109375 -15.734375 L 5.390625 -15.734375 L 5.390625 -9.671875 L 13.484375 -9.671875 L 13.484375 -15.734375 L 17.09375 -15.734375 Z M 17.09375 0 "/></g></g></g><g fill="#ff0000" fill-opacity="1"><g transform="translate(156.040895, 181.263914)"><g><path d="M 5.28125 -15.734375 L 10.28125 -8.96875 C 11.113281 -10.09375 11.945312 -11.21875 12.78125 -12.34375 C 13.613281 -13.476562 14.453125 -14.609375 15.296875 -15.734375 L 18.78125 -15.734375 L 18.78125 0 L 15.171875 0 L 15.171875 -9.59375 C 14.347656 -8.5 13.523438 -7.398438 12.703125 -6.296875 C 11.890625 -5.203125 11.082031 -4.097656 10.28125 -2.984375 C 9.445312 -4.097656 8.625 -5.203125 7.8125 -6.296875 C 7.007812 -7.398438 6.203125 -8.5 5.390625 -9.59375 L 5.390625 0 L 1.796875 0 L 1.796875 -12.140625 L 0.109375 -12.140625 L 0.109375 -15.734375 Z M 5.28125 -15.734375 "/></g></g></g><g fill="#ff0000" fill-opacity="1"><g transform="translate(178.338791, 181.263914)"><g/></g></g><g fill="#ff0000" fill-opacity="1"><g transform="translate(189.735561, 181.263914)"><g><path d="M 7.78125 0 L 2.109375 -12.140625 L 0.21875 -12.140625 L 0.21875 -15.734375 L 4.390625 -15.734375 L 7.515625 -9.015625 L 9.796875 -3.375 L 12.09375 -9.015625 L 15.25 -15.734375 L 19.171875 -15.734375 L 11.828125 0 Z M 7.78125 0 "/></g></g></g><g fill="#ff0000" fill-opacity="1"><g transform="translate(211.538969, 181.263914)"><g><path d="M 4.71875 0 L 1.125 0 L 1.125 -15.734375 L 4.71875 -15.734375 Z M 4.71875 0 "/></g></g></g><g fill="#ff0000" fill-opacity="1"><g transform="translate(219.789014, 181.263914)"><g><path d="M 13.828125 0 L 1.125 0 L 1.125 -3.59375 L 12.484375 -3.59375 L 12.484375 -6.078125 L 3.375 -6.078125 L 1.125 -8.3125 L 1.125 -13.484375 L 3.375 -15.734375 L 16.078125 -15.734375 L 16.078125 -12.140625 L 4.71875 -12.140625 L 4.71875 -9.671875 L 13.828125 -9.671875 L 16.078125 -7.421875 L 16.078125 -2.25 Z M 13.828125 0 "/></g></g></g><g fill="#ff0000" fill-opacity="1"><g transform="translate(239.389721, 181.263914)"><g><path d="M 17.09375 -2.25 L 14.84375 0 L 4.046875 0 L 1.796875 -2.25 L 1.796875 -12.140625 L 0.109375 -12.140625 L 0.109375 -15.734375 L 5.390625 -15.734375 L 5.390625 -3.59375 L 13.484375 -3.59375 L 13.484375 -15.734375 L 17.09375 -15.734375 Z M 17.09375 -2.25 "/></g></g></g><g fill="#ff0000" fill-opacity="1"><g transform="translate(260.001856, 181.263914)"><g><path d="M 16.96875 0 L 15.625 0 L 13.375 -2.25 L 13.375 -6.078125 L 4.71875 -6.078125 L 4.71875 -3.59375 L 12.25 -3.59375 L 12.25 0 L 3.375 0 L 1.125 -2.25 L 1.125 -7.421875 L 3.375 -9.671875 L 13.375 -9.671875 L 13.375 -12.140625 L 1.6875 -12.140625 L 1.6875 -15.734375 L 14.734375 -15.734375 L 16.96875 -13.484375 Z M 16.96875 0 "/></g></g></g><g fill="#ff0000" fill-opacity="1"><g transform="translate(280.501611, 181.263914)"><g><path d="M 15.515625 0 L 1.796875 0 L 1.796875 -12.140625 L 0.109375 -12.140625 L 0.109375 -15.734375 L 5.390625 -15.734375 L 5.390625 -3.59375 L 15.515625 -3.59375 Z M 15.515625 0 "/></g></g></g><g fill="#ff0000" fill-opacity="1"><g transform="translate(298.641342, 181.263914)"><g><path d="M 4.71875 0 L 1.125 0 L 1.125 -15.734375 L 4.71875 -15.734375 Z M 4.71875 0 "/></g></g></g><g fill="#ff0000" fill-opacity="1"><g transform="translate(306.891387, 181.263914)"><g><path d="M 6.859375 -3.59375 L 16.96875 -3.59375 L 16.96875 0 L 3.375 0 L 1.125 -2.25 L 1.125 -3.984375 L 12.484375 -12.140625 L 1.125 -12.140625 L 1.125 -15.734375 L 14.734375 -15.734375 L 16.96875 -13.484375 L 16.96875 -11.015625 Z M 6.859375 -3.59375 "/></g></g></g><g fill="#ff0000" fill-opacity="1"><g transform="translate(327.391164, 181.263914)"><g><path d="M 16.40625 0 L 3.375 0 L 1.125 -2.25 L 1.125 -13.484375 L 3.375 -15.734375 L 14.734375 -15.734375 L 16.96875 -13.484375 L 16.96875 -8.09375 L 14.734375 -5.84375 L 5.84375 -5.84375 L 5.84375 -9.4375 L 13.375 -9.4375 L 13.375 -12.140625 L 4.71875 -12.140625 L 4.71875 -3.59375 L 16.40625 -3.59375 Z M 16.40625 0 "/></g></g></g><g fill="#ff0000" fill-opacity="1"><g transform="translate(347.890919, 181.263914)"><g><path d="M 13.71875 -3.828125 C 14.28125 -3.179688 14.835938 -2.535156 15.390625 -1.890625 C 15.953125 -1.253906 16.519531 -0.625 17.09375 0 L 12.53125 0 C 11.957031 -0.625 11.390625 -1.253906 10.828125 -1.890625 C 10.273438 -2.535156 9.71875 -3.179688 9.15625 -3.828125 L 5.390625 -3.828125 L 5.390625 0 L 1.796875 0 L 1.796875 -11.015625 L 5.390625 -11.015625 L 5.390625 -7.421875 L 12.359375 -7.421875 L 12.359375 -12.140625 L 0.109375 -12.140625 L 0.109375 -15.734375 L 13.71875 -15.734375 L 15.96875 -13.484375 L 15.96875 -6.078125 Z M 13.71875 -3.828125 "/></g></g></g><g fill="#00ffff" fill-opacity="1"><g transform="translate(9.783522, 180.989871)"><g><path d="M 18.953125 0 L 15.015625 0 L 13.734375 -2.703125 L 5.421875 -2.703125 L 4.15625 0 L 0.21875 0 L 5.875 -12.140625 L 4.1875 -12.140625 L 4.1875 -15.734375 L 11.609375 -15.734375 Z M 12.046875 -6.296875 L 9.640625 -12.203125 L 9.484375 -12.203125 L 7.078125 -6.296875 Z M 12.046875 -6.296875 "/></g></g></g><g fill="#00ffff" fill-opacity="1"><g transform="translate(31.362168, 180.989871)"><g><path d="M 15.515625 0 L 1.796875 0 L 1.796875 -12.140625 L 0.109375 -12.140625 L 0.109375 -15.734375 L 5.390625 -15.734375 L 5.390625 -3.59375 L 15.515625 -3.59375 Z M 15.515625 0 "/></g></g></g><g fill="#00ffff" fill-opacity="1"><g transform="translate(49.5019, 180.989871)"><g><path d="M 14.734375 0 L 3.375 0 L 1.125 -2.25 L 1.125 -13.484375 L 3.375 -15.734375 L 15.296875 -15.734375 L 15.296875 -12.140625 L 4.71875 -12.140625 L 4.71875 -3.59375 L 13.375 -3.59375 L 13.375 -6.078125 L 9.5625 -6.078125 L 9.5625 -9.671875 L 16.96875 -9.671875 L 16.96875 -2.25 Z M 14.734375 0 "/></g></g></g><g fill="#00ffff" fill-opacity="1"><g transform="translate(70.001666, 180.989871)"><g><path d="M 15.296875 0 L 3.375 0 L 1.125 -2.25 L 1.125 -13.484375 L 3.375 -15.734375 L 15.296875 -15.734375 L 17.53125 -13.484375 L 17.53125 -2.25 Z M 13.9375 -3.59375 L 13.9375 -12.140625 L 4.71875 -12.140625 L 4.71875 -3.59375 Z M 13.9375 -3.59375 "/></g></g></g><g fill="#00ffff" fill-opacity="1"><g transform="translate(91.063348, 180.989871)"><g><path d="M 13.71875 -3.828125 C 14.28125 -3.179688 14.835938 -2.535156 15.390625 -1.890625 C 15.953125 -1.253906 16.519531 -0.625 17.09375 0 L 12.53125 0 C 11.957031 -0.625 11.390625 -1.253906 10.828125 -1.890625 C 10.273438 -2.535156 9.71875 -3.179688 9.15625 -3.828125 L 5.390625 -3.828125 L 5.390625 0 L 1.796875 0 L 1.796875 -11.015625 L 5.390625 -11.015625 L 5.390625 -7.421875 L 12.359375 -7.421875 L 12.359375 -12.140625 L 0.109375 -12.140625 L 0.109375 -15.734375 L 13.71875 -15.734375 L 15.96875 -13.484375 L 15.96875 -6.078125 Z M 13.71875 -3.828125 "/></g></g></g><g fill="#00ffff" fill-opacity="1"><g transform="translate(110.776436, 180.989871)"><g><path d="M 4.71875 0 L 1.125 0 L 1.125 -15.734375 L 4.71875 -15.734375 Z M 4.71875 0 "/></g></g></g><g fill="#00ffff" fill-opacity="1"><g transform="translate(119.026481, 180.989871)"><g><path d="M 9.921875 0 L 6.3125 0 L 6.3125 -12.140625 L 0.109375 -12.140625 L 0.109375 -15.734375 L 16.125 -15.734375 L 16.125 -12.140625 L 9.921875 -12.140625 Z M 9.921875 0 "/></g></g></g><g fill="#00ffff" fill-opacity="1"><g transform="translate(137.6607, 180.989871)"><g><path d="M 17.09375 0 L 13.484375 0 L 13.484375 -6.078125 L 5.390625 -6.078125 L 5.390625 0 L 1.796875 0 L 1.796875 -12.140625 L 0.109375 -12.140625 L 0.109375 -15.734375 L 5.390625 -15.734375 L 5.390625 -9.671875 L 13.484375 -9.671875 L 13.484375 -15.734375 L 17.09375 -15.734375 Z M 17.09375 0 "/></g></g></g><g fill="#00ffff" fill-opacity="1"><g transform="translate(158.272847, 180.989871)"><g><path d="M 5.28125 -15.734375 L 10.28125 -8.96875 C 11.113281 -10.09375 11.945312 -11.21875 12.78125 -12.34375 C 13.613281 -13.476562 14.453125 -14.609375 15.296875 -15.734375 L 18.78125 -15.734375 L 18.78125 0 L 15.171875 0 L 15.171875 -9.59375 C 14.347656 -8.5 13.523438 -7.398438 12.703125 -6.296875 C 11.890625 -5.203125 11.082031 -4.097656 10.28125 -2.984375 C 9.445312 -4.097656 8.625 -5.203125 7.8125 -6.296875 C 7.007812 -7.398438 6.203125 -8.5 5.390625 -9.59375 L 5.390625 0 L 1.796875 0 L 1.796875 -12.140625 L 0.109375 -12.140625 L 0.109375 -15.734375 Z M 5.28125 -15.734375 "/></g></g></g><g fill="#00ffff" fill-opacity="1"><g transform="translate(180.570743, 180.989871)"><g/></g></g><g fill="#00ffff" fill-opacity="1"><g transform="translate(191.967513, 180.989871)"><g><path d="M 7.78125 0 L 2.109375 -12.140625 L 0.21875 -12.140625 L 0.21875 -15.734375 L 4.390625 -15.734375 L 7.515625 -9.015625 L 9.796875 -3.375 L 12.09375 -9.015625 L 15.25 -15.734375 L 19.171875 -15.734375 L 11.828125 0 Z M 7.78125 0 "/></g></g></g><g fill="#00ffff" fill-opacity="1"><g transform="translate(213.770921, 180.989871)"><g><path d="M 4.71875 0 L 1.125 0 L 1.125 -15.734375 L 4.71875 -15.734375 Z M 4.71875 0 "/></g></g></g><g fill="#00ffff" fill-opacity="1"><g transform="translate(222.020966, 180.989871)"><g><path d="M 13.828125 0 L 1.125 0 L 1.125 -3.59375 L 12.484375 -3.59375 L 12.484375 -6.078125 L 3.375 -6.078125 L 1.125 -8.3125 L 1.125 -13.484375 L 3.375 -15.734375 L 16.078125 -15.734375 L 16.078125 -12.140625 L 4.71875 -12.140625 L 4.71875 -9.671875 L 13.828125 -9.671875 L 16.078125 -7.421875 L 16.078125 -2.25 Z M 13.828125 0 "/></g></g></g><g fill="#00ffff" fill-opacity="1"><g transform="translate(241.621673, 180.989871)"><g><path d="M 17.09375 -2.25 L 14.84375 0 L 4.046875 0 L 1.796875 -2.25 L 1.796875 -12.140625 L 0.109375 -12.140625 L 0.109375 -15.734375 L 5.390625 -15.734375 L 5.390625 -3.59375 L 13.484375 -3.59375 L 13.484375 -15.734375 L 17.09375 -15.734375 Z M 17.09375 -2.25 "/></g></g></g><g fill="#00ffff" fill-opacity="1"><g transform="translate(262.233808, 180.989871)"><g><path d="M 16.96875 0 L 15.625 0 L 13.375 -2.25 L 13.375 -6.078125 L 4.71875 -6.078125 L 4.71875 -3.59375 L 12.25 -3.59375 L 12.25 0 L 3.375 0 L 1.125 -2.25 L 1.125 -7.421875 L 3.375 -9.671875 L 13.375 -9.671875 L 13.375 -12.140625 L 1.6875 -12.140625 L 1.6875 -15.734375 L 14.734375 -15.734375 L 16.96875 -13.484375 Z M 16.96875 0 "/></g></g></g><g fill="#00ffff" fill-opacity="1"><g transform="translate(282.733563, 180.989871)"><g><path d="M 15.515625 0 L 1.796875 0 L 1.796875 -12.140625 L 0.109375 -12.140625 L 0.109375 -15.734375 L 5.390625 -15.734375 L 5.390625 -3.59375 L 15.515625 -3.59375 Z M 15.515625 0 "/></g></g></g><g fill="#00ffff" fill-opacity="1"><g transform="translate(300.873294, 180.989871)"><g><path d="M 4.71875 0 L 1.125 0 L 1.125 -15.734375 L 4.71875 -15.734375 Z M 4.71875 0 "/></g></g></g><g fill="#00ffff" fill-opacity="1"><g transform="translate(309.123339, 180.989871)"><g><path d="M 6.859375 -3.59375 L 16.96875 -3.59375 L 16.96875 0 L 3.375 0 L 1.125 -2.25 L 1.125 -3.984375 L 12.484375 -12.140625 L 1.125 -12.140625 L 1.125 -15.734375 L 14.734375 -15.734375 L 16.96875 -13.484375 L 16.96875 -11.015625 Z M 6.859375 -3.59375 "/></g></g></g><g fill="#00ffff" fill-opacity="1"><g transform="translate(329.623116, 180.989871)"><g><path d="M 16.40625 0 L 3.375 0 L 1.125 -2.25 L 1.125 -13.484375 L 3.375 -15.734375 L 14.734375 -15.734375 L 16.96875 -13.484375 L 16.96875 -8.09375 L 14.734375 -5.84375 L 5.84375 -5.84375 L 5.84375 -9.4375 L 13.375 -9.4375 L 13.375 -12.140625 L 4.71875 -12.140625 L 4.71875 -3.59375 L 16.40625 -3.59375 Z M 16.40625 0 "/></g></g></g><g fill="#00ffff" fill-opacity="1"><g transform="translate(350.122871, 180.989871)"><g><path d="M 13.71875 -3.828125 C 14.28125 -3.179688 14.835938 -2.535156 15.390625 -1.890625 C 15.953125 -1.253906 16.519531 -0.625 17.09375 0 L 12.53125 0 C 11.957031 -0.625 11.390625 -1.253906 10.828125 -1.890625 C 10.273438 -2.535156 9.71875 -3.179688 9.15625 -3.828125 L 5.390625 -3.828125 L 5.390625 0 L 1.796875 0 L 1.796875 -11.015625 L 5.390625 -11.015625 L 5.390625 -7.421875 L 12.359375 -7.421875 L 12.359375 -12.140625 L 0.109375 -12.140625 L 0.109375 -15.734375 L 13.71875 -15.734375 L 15.96875 -13.484375 L 15.96875 -6.078125 Z M 13.71875 -3.828125 "/></g></g></g><g fill="#fffbf0" fill-opacity="1"><g transform="translate(8.667546, 181.126891)"><g><path d="M 18.953125 0 L 15.015625 0 L 13.734375 -2.703125 L 5.421875 -2.703125 L 4.15625 0 L 0.21875 0 L 5.875 -12.140625 L 4.1875 -12.140625 L 4.1875 -15.734375 L 11.609375 -15.734375 Z M 12.046875 -6.296875 L 9.640625 -12.203125 L 9.484375 -12.203125 L 7.078125 -6.296875 Z M 12.046875 -6.296875 "/></g></g></g><g fill="#fffbf0" fill-opacity="1"><g transform="translate(30.246192, 181.126891)"><g><path d="M 15.515625 0 L 1.796875 0 L 1.796875 -12.140625 L 0.109375 -12.140625 L 0.109375 -15.734375 L 5.390625 -15.734375 L 5.390625 -3.59375 L 15.515625 -3.59375 Z M 15.515625 0 "/></g></g></g><g fill="#fffbf0" fill-opacity="1"><g transform="translate(48.385924, 181.126891)"><g><path d="M 14.734375 0 L 3.375 0 L 1.125 -2.25 L 1.125 -13.484375 L 3.375 -15.734375 L 15.296875 -15.734375 L 15.296875 -12.140625 L 4.71875 -12.140625 L 4.71875 -3.59375 L 13.375 -3.59375 L 13.375 -6.078125 L 9.5625 -6.078125 L 9.5625 -9.671875 L 16.96875 -9.671875 L 16.96875 -2.25 Z M 14.734375 0 "/></g></g></g><g fill="#fffbf0" fill-opacity="1"><g transform="translate(68.88569, 181.126891)"><g><path d="M 15.296875 0 L 3.375 0 L 1.125 -2.25 L 1.125 -13.484375 L 3.375 -15.734375 L 15.296875 -15.734375 L 17.53125 -13.484375 L 17.53125 -2.25 Z M 13.9375 -3.59375 L 13.9375 -12.140625 L 4.71875 -12.140625 L 4.71875 -3.59375 Z M 13.9375 -3.59375 "/></g></g></g><g fill="#fffbf0" fill-opacity="1"><g transform="translate(89.947372, 181.126891)"><g><path d="M 13.71875 -3.828125 C 14.28125 -3.179688 14.835938 -2.535156 15.390625 -1.890625 C 15.953125 -1.253906 16.519531 -0.625 17.09375 0 L 12.53125 0 C 11.957031 -0.625 11.390625 -1.253906 10.828125 -1.890625 C 10.273438 -2.535156 9.71875 -3.179688 9.15625 -3.828125 L 5.390625 -3.828125 L 5.390625 0 L 1.796875 0 L 1.796875 -11.015625 L 5.390625 -11.015625 L 5.390625 -7.421875 L 12.359375 -7.421875 L 12.359375 -12.140625 L 0.109375 -12.140625 L 0.109375 -15.734375 L 13.71875 -15.734375 L 15.96875 -13.484375 L 15.96875 -6.078125 Z M 13.71875 -3.828125 "/></g></g></g><g fill="#fffbf0" fill-opacity="1"><g transform="translate(109.66046, 181.126891)"><g><path d="M 4.71875 0 L 1.125 0 L 1.125 -15.734375 L 4.71875 -15.734375 Z M 4.71875 0 "/></g></g></g><g fill="#fffbf0" fill-opacity="1"><g transform="translate(117.910505, 181.126891)"><g><path d="M 9.921875 0 L 6.3125 0 L 6.3125 -12.140625 L 0.109375 -12.140625 L 0.109375 -15.734375 L 16.125 -15.734375 L 16.125 -12.140625 L 9.921875 -12.140625 Z M 9.921875 0 "/></g></g></g><g fill="#fffbf0" fill-opacity="1"><g transform="translate(136.544724, 181.126891)"><g><path d="M 17.09375 0 L 13.484375 0 L 13.484375 -6.078125 L 5.390625 -6.078125 L 5.390625 0 L 1.796875 0 L 1.796875 -12.140625 L 0.109375 -12.140625 L 0.109375 -15.734375 L 5.390625 -15.734375 L 5.390625 -9.671875 L 13.484375 -9.671875 L 13.484375 -15.734375 L 17.09375 -15.734375 Z M 17.09375 0 "/></g></g></g><g fill="#fffbf0" fill-opacity="1"><g transform="translate(157.156871, 181.126891)"><g><path d="M 5.28125 -15.734375 L 10.28125 -8.96875 C 11.113281 -10.09375 11.945312 -11.21875 12.78125 -12.34375 C 13.613281 -13.476562 14.453125 -14.609375 15.296875 -15.734375 L 18.78125 -15.734375 L 18.78125 0 L 15.171875 0 L 15.171875 -9.59375 C 14.347656 -8.5 13.523438 -7.398438 12.703125 -6.296875 C 11.890625 -5.203125 11.082031 -4.097656 10.28125 -2.984375 C 9.445312 -4.097656 8.625 -5.203125 7.8125 -6.296875 C 7.007812 -7.398438 6.203125 -8.5 5.390625 -9.59375 L 5.390625 0 L 1.796875 0 L 1.796875 -12.140625 L 0.109375 -12.140625 L 0.109375 -15.734375 Z M 5.28125 -15.734375 "/></g></g></g><g fill="#fffbf0" fill-opacity="1"><g transform="translate(179.454767, 181.126891)"><g/></g></g><g fill="#fffbf0" fill-opacity="1"><g transform="translate(190.851537, 181.126891)"><g><path d="M 7.78125 0 L 2.109375 -12.140625 L 0.21875 -12.140625 L 0.21875 -15.734375 L 4.390625 -15.734375 L 7.515625 -9.015625 L 9.796875 -3.375 L 12.09375 -9.015625 L 15.25 -15.734375 L 19.171875 -15.734375 L 11.828125 0 Z M 7.78125 0 "/></g></g></g><g fill="#fffbf0" fill-opacity="1"><g transform="translate(212.654945, 181.126891)"><g><path d="M 4.71875 0 L 1.125 0 L 1.125 -15.734375 L 4.71875 -15.734375 Z M 4.71875 0 "/></g></g></g><g fill="#fffbf0" fill-opacity="1"><g transform="translate(220.90499, 181.126891)"><g><path d="M 13.828125 0 L 1.125 0 L 1.125 -3.59375 L 12.484375 -3.59375 L 12.484375 -6.078125 L 3.375 -6.078125 L 1.125 -8.3125 L 1.125 -13.484375 L 3.375 -15.734375 L 16.078125 -15.734375 L 16.078125 -12.140625 L 4.71875 -12.140625 L 4.71875 -9.671875 L 13.828125 -9.671875 L 16.078125 -7.421875 L 16.078125 -2.25 Z M 13.828125 0 "/></g></g></g><g fill="#fffbf0" fill-opacity="1"><g transform="translate(240.505697, 181.126891)"><g><path d="M 17.09375 -2.25 L 14.84375 0 L 4.046875 0 L 1.796875 -2.25 L 1.796875 -12.140625 L 0.109375 -12.140625 L 0.109375 -15.734375 L 5.390625 -15.734375 L 5.390625 -3.59375 L 13.484375 -3.59375 L 13.484375 -15.734375 L 17.09375 -15.734375 Z M 17.09375 -2.25 "/></g></g></g><g fill="#fffbf0" fill-opacity="1"><g transform="translate(261.117832, 181.126891)"><g><path d="M 16.96875 0 L 15.625 0 L 13.375 -2.25 L 13.375 -6.078125 L 4.71875 -6.078125 L 4.71875 -3.59375 L 12.25 -3.59375 L 12.25 0 L 3.375 0 L 1.125 -2.25 L 1.125 -7.421875 L 3.375 -9.671875 L 13.375 -9.671875 L 13.375 -12.140625 L 1.6875 -12.140625 L 1.6875 -15.734375 L 14.734375 -15.734375 L 16.96875 -13.484375 Z M 16.96875 0 "/></g></g></g><g fill="#fffbf0" fill-opacity="1"><g transform="translate(281.617587, 181.126891)"><g><path d="M 15.515625 0 L 1.796875 0 L 1.796875 -12.140625 L 0.109375 -12.140625 L 0.109375 -15.734375 L 5.390625 -15.734375 L 5.390625 -3.59375 L 15.515625 -3.59375 Z M 15.515625 0 "/></g></g></g><g fill="#fffbf0" fill-opacity="1"><g transform="translate(299.757318, 181.126891)"><g><path d="M 4.71875 0 L 1.125 0 L 1.125 -15.734375 L 4.71875 -15.734375 Z M 4.71875 0 "/></g></g></g><g fill="#fffbf0" fill-opacity="1"><g transform="translate(308.007363, 181.126891)"><g><path d="M 6.859375 -3.59375 L 16.96875 -3.59375 L 16.96875 0 L 3.375 0 L 1.125 -2.25 L 1.125 -3.984375 L 12.484375 -12.140625 L 1.125 -12.140625 L 1.125 -15.734375 L 14.734375 -15.734375 L 16.96875 -13.484375 L 16.96875 -11.015625 Z M 6.859375 -3.59375 "/></g></g></g><g fill="#fffbf0" fill-opacity="1"><g transform="translate(328.50714, 181.126891)"><g><path d="M 16.40625 0 L 3.375 0 L 1.125 -2.25 L 1.125 -13.484375 L 3.375 -15.734375 L 14.734375 -15.734375 L 16.96875 -13.484375 L 16.96875 -8.09375 L 14.734375 -5.84375 L 5.84375 -5.84375 L 5.84375 -9.4375 L 13.375 -9.4375 L 13.375 -12.140625 L 4.71875 -12.140625 L 4.71875 -3.59375 L 16.40625 -3.59375 Z M 16.40625 0 "/></g></g></g><g fill="#fffbf0" fill-opacity="1"><g transform="translate(349.006895, 181.126891)"><g><path d="M 13.71875 -3.828125 C 14.28125 -3.179688 14.835938 -2.535156 15.390625 -1.890625 C 15.953125 -1.253906 16.519531 -0.625 17.09375 0 L 12.53125 0 C 11.957031 -0.625 11.390625 -1.253906 10.828125 -1.890625 C 10.273438 -2.535156 9.71875 -3.179688 9.15625 -3.828125 L 5.390625 -3.828125 L 5.390625 0 L 1.796875 0 L 1.796875 -11.015625 L 5.390625 -11.015625 L 5.390625 -7.421875 L 12.359375 -7.421875 L 12.359375 -12.140625 L 0.109375 -12.140625 L 0.109375 -15.734375 L 13.71875 -15.734375 L 15.96875 -13.484375 L 15.96875 -6.078125 Z M 13.71875 -3.828125 "/></g></g></g></svg>